M48
;Layer_Color=6321
;FILE_FORMAT=4:3
METRIC,LZ
;TYPE=PLATED
T1F00S00C0.711
T2F00S00C0.750
T3F00S00C0.762
T4F00S00C0.800
T6F00S00C0.914
T7F00S00C1.000
T8F00S00C1.016
T9F00S00C1.050
T10F00S00C1.200
T11F00S00C1.500
T12F00S00C2.489
T13F00S00C3.000
T14F00S00C3.200
;TYPE=NON_PLATED
T15F00S00C1.000
T16F00S00C2.500
%
T01
X0513343Y0074481
Y0103056
X0518318Y0096931
Y0093031
X0553493Y0095281
X0595768Y0086756
X0558093Y0130206
X0558043Y0133181
X0560393Y0150906
X0564643Y0153206
X0566518Y0146031
X0554043Y0157381
X0546418Y0157356
X0543893
X0542543Y0145306
X0538593Y0144781
X0541543Y0140931
X0542068Y0135106
X0534068
X0532293Y0140931
X0530343Y0144306
X0529793Y0149456
X0518643Y0149706
X0513893Y0175081
X0510943Y0178756
X0515543Y0188281
X0521918Y0183356
X0517743Y0175081
X0540618Y0177431
X0543893Y0182731
X0541693Y0189931
X0540618Y0194831
X0551743Y0195681
X0553468Y0189931
X0551668Y0170031
X0552343Y0164181
X0548968Y0160881
X0543568Y0163856
X0527793Y0193481
X0555718Y0178656
X0559643Y0180506
X0561693Y0182756
X0572568Y0182506
X057142Y0193309
X0578293Y0188931
X0586468Y0181656
X0557993Y0161781
T02
X0495545Y0092477
Y0095017
Y0097557
T03
X0591172Y0163931
X0583425
T04
X0532268Y0114731
X0563268
X0591345Y0082267
X0593345
X0595345
X0563268Y0121731
X0532268
T06
X0593393Y0153931
X0590853
X0588313
X0585773
X0583233
X0580693
T07
X0506143Y0089517
X0501643
Y0096017
X0501643Y0098392
X0506143
X0506143Y0096017
X0506143Y0104892
X0501643
X0518356Y0099329
X0520896
X0523436
X0525976
X0528516
X0531056
X0533596
X0536136
X0538676
X0541216
X0543756
X0546296
X0548836
X0551376
X0553916
X0589243Y0098392
X0589243Y0096017
X0593743
X0593743Y0098392
Y0104892
X0589243
X0589243Y0089517
X0593743
X0584963Y0126431
X0582423
Y0131681
X0584963
X0556583Y0148892
X0557858Y0154356
X0560398
X0555318
X0552778
X0550238
X0547698
X0545158
X0542618
X0543883Y0148892
X0541343
X0538803
X0546423
X0548963
X0551503
X0554043
X0514693Y0153931
X0512153
X0509613
X0510423Y0131681
X0512963
Y0126431
X0510423
X0526108Y0159206
X0528648
X0531188
X0533728
X0536268
X0538808
X0541348
X0543888
X0546428
X0548968
X0551508
X0554048
Y0184621
X0551508
X0548968
X0546428
X0543888
X0541348
X0538808
X0536268
X0533728
X0531188
X0528648
X0526108
X0533279Y0190619
X053241Y0193005
X0538212Y0192414
X0537343Y0194801
X0546423Y0195681
X0548963
Y0190431
X0546423
X0557175Y0192367
X0558044Y0194754
X0562977Y0192958
X0562108Y0190571
X0561668Y0184621
X0559128
X0556588
X0564208
X0566748
X0569288
X0571828
Y0159206
X0569288
X0566748
X0564208
X0561668
X0559128
X0556588
T08
X0515816Y0099329
X0539695Y0089929
Y0079617
X0556002Y0079642
X0555976Y0089929
X0515693Y0182661
Y0185201
X0513153
Y0182661
X0518233
Y0185201
X0523153Y0188261
Y0190801
X0525693
Y0188261
X0528233
Y0190801
X0545128Y0181451
X0547668
X0550208
Y0178911
X0547668
X0545128
X0567153Y0188261
X0569693
X0572233
Y0190801
X0569693
X0567153
X0577153Y0185201
Y0182661
X0579693
Y0185201
X0582233
Y0182661
T09
X052258Y0074437
Y0087391
X052258Y0111468
Y0124422
T10
X0575313Y0153231
X0572773
X0570233
X0567693
X0532313
X0529773
X0527233
X0524693
T11
X0589245Y0082267
X0597445
T12
X0510203Y0099329
X0585184
T13
X0555693Y0063367
X0539693
Y0173217
X0555693
T14
X050517Y0110431
X0590193
Y0147431
X0505193
Y0179431
X0590193
T15
X0581153Y0124281
X0509153Y0124281
X0529955Y0193463
X0545153Y0188281
X0563694Y0188643
T16
X0585593Y0128931
X0581793
X0513593Y0128931
X0509793
X0535843Y0190882
X0534544Y0194452
X0545793Y0192931
X0549593
X0559544Y0190834
X0560843Y0194405
M30
